HIERARCHY
ROOT SimulationBone
{
	OFFSET 0.000000 0.000000 0.000000
	CHANNELS 6 Xposition Yposition Zposition Zrotation Yrotation Xrotation 
	JOINT Hips
	{
		OFFSET 0.000000 0.000000 0.000000
		CHANNELS 6 Xposition Yposition Zposition Zrotation Yrotation Xrotation 
		JOINT LeftUpLeg
		{
			OFFSET 0.103454 1.857828 10.548502
			CHANNELS 3 Zrotation Yrotation Xrotation
			JOINT LeftLeg
			{
				OFFSET 43.500000 -0.000023 -0.000008
				CHANNELS 3 Zrotation Yrotation Xrotation
				JOINT LeftFoot
				{
					OFFSET 42.372192 0.000008 0.000008
					CHANNELS 3 Zrotation Yrotation Xrotation
					JOINT LeftToe
					{
						OFFSET 17.299997 -0.000001 0.000000
						CHANNELS 3 Zrotation Yrotation Xrotation
						End Site
						{
							OFFSET 0.000000 0.000000 0.000000
						}
					}
				}
			}
		}
		JOINT RightUpLeg
		{
			OFFSET 0.103459 1.857828 -10.548505
			CHANNELS 3 Zrotation Yrotation Xrotation
			JOINT RightLeg
			{
				OFFSET 43.500046 -0.000027 0.000015
				CHANNELS 3 Zrotation Yrotation Xrotation
				JOINT RightFoot
				{
					OFFSET 42.372261 -0.000008 0.000019
					CHANNELS 3 Zrotation Yrotation Xrotation
					JOINT RightToe
					{
						OFFSET 17.299992 -0.000006 -0.000002
						CHANNELS 3 Zrotation Yrotation Xrotation
						End Site
						{
							OFFSET 0.000000 0.000000 0.000000
						}
					}
				}
			}
		}
		JOINT Spine
		{
			OFFSET 6.901967 -2.603729 0.000006
			CHANNELS 3 Zrotation Yrotation Xrotation
			JOINT Spine1
			{
				OFFSET 12.588098 -0.000001 -0.000005
				CHANNELS 3 Zrotation Yrotation Xrotation
				JOINT Spine2
				{
					OFFSET 12.343207 0.000001 -0.000003
					CHANNELS 3 Zrotation Yrotation Xrotation
					JOINT Neck
					{
						OFFSET 25.832897 -0.000006 -0.000001
						CHANNELS 3 Zrotation Yrotation Xrotation
						JOINT Head
						{
							OFFSET 11.766602 0.000010 0.000005
							CHANNELS 3 Zrotation Yrotation Xrotation
							End Site
							{
								OFFSET 0.000000 0.000000 0.000000
							}
						}
					}
					JOINT LeftShoulder
					{
						OFFSET 19.745901 -1.480368 6.000114
						CHANNELS 3 Zrotation Yrotation Xrotation
						JOINT LeftArm
						{
							OFFSET 11.284125 -0.000009 -0.000026
							CHANNELS 3 Zrotation Yrotation Xrotation
							JOINT LeftForeArm
							{
								OFFSET 33.000046 0.000005 0.000037
								CHANNELS 3 Zrotation Yrotation Xrotation
								JOINT LeftHand
								{
									OFFSET 25.200003 0.000016 -0.000001
									CHANNELS 3 Zrotation Yrotation Xrotation
									End Site
									{
										OFFSET 0.000000 0.000000 0.000000
									}
								}
							}
						}
					}
					JOINT RightShoulder
					{
						OFFSET 19.746088 -1.480377 -6.000074
						CHANNELS 3 Zrotation Yrotation Xrotation
						JOINT RightArm
						{
							OFFSET 11.284132 -0.000015 -0.000021
							CHANNELS 3 Zrotation Yrotation Xrotation
							JOINT RightForeArm
							{
								OFFSET 33.000107 0.000015 0.000018
								CHANNELS 3 Zrotation Yrotation Xrotation
								JOINT RightHand
								{
									OFFSET 25.199774 0.000138 0.000420
									CHANNELS 3 Zrotation Yrotation Xrotation
									End Site
									{
										OFFSET 0.000000 0.000000 0.000000
									}
								}
							}
						}
					}
				}
			}
		}
	}
}
MOTION
Frames: 6
Frame Time: 0.016667
-121.289985 0.000000 68.451453 0.000000 -24.612531 0.000000 -1.722958 89.897018 0.756334 89.083243 3.586906 -179.854849 157.971470 -11.665298 174.346439 -72.104004 1.437077 5.622302 74.202874 -6.428096 -7.669353 21.454560 0.003095 -0.000001 163.999522 -4.597000 -174.783421 -24.348699 -1.805572 9.985384 84.135389 -6.251934 3.069139 21.454558 -0.003101 -0.000016 6.926405 1.339412 -0.674050 3.825676 2.700034 -1.304345 3.507274 2.692252 -1.320631 3.927224 11.333190 -3.154514 -20.922480 -7.867301 2.018273 -142.102526 -86.031905 -39.763776 -7.716131 68.713961 43.441511 -28.205757 -13.050757 1.071089 13.186507 2.324041 -4.894148 -158.907996 77.438610 22.965136 6.113467 -59.582750 -20.645970 -35.085209 11.783210 -1.155329 7.142349 1.290077 -9.209164 
-120.380060 0.000000 69.036647 0.000000 -24.188339 0.000000 -1.753334 90.047827 0.649836 88.972663 3.290666 -179.974760 156.303752 -11.564731 173.973209 -72.764687 1.512659 3.614309 74.688397 -5.158494 -8.359390 21.454554 0.003091 0.000001 164.859787 -4.369695 -174.909478 -23.939328 -1.819912 10.163940 84.653747 -6.334975 3.284175 21.454560 -0.003095 -0.000016 6.900963 1.278951 -0.568649 3.777691 2.575490 -1.096042 3.459314 2.568957 -1.111578 4.014793 11.109406 -2.997982 -20.876504 -7.663702 2.043661 -141.420750 -85.722440 -40.462407 -6.132396 68.767693 44.862809 -27.485218 -12.406327 1.015985 13.346425 2.715998 -4.711818 -160.516083 77.632458 21.321879 5.025123 -59.935163 -20.293211 -35.325394 12.006117 -1.175465 7.115804 1.560378 -9.147296 
-119.435824 0.000000 69.601696 0.000000 -23.795475 0.000000 -1.805855 90.224007 0.549558 88.779756 2.893633 179.956327 154.559079 -11.348404 173.489045 -72.780698 1.612262 1.927843 74.934462 -3.980684 -8.527005 21.454553 0.003091 0.000001 165.698108 -4.039094 -174.875082 -23.395018 -1.918087 10.250645 85.102271 -6.350900 3.513846 21.454560 -0.003099 -0.000017 6.855070 1.191376 -0.474129 3.688554 2.397000 -0.910733 3.370201 2.391593 -0.925197 4.008321 10.829470 -2.868308 -20.714343 -7.493155 2.045561 -141.045364 -85.514049 -40.848968 -4.323458 68.762633 46.538038 -26.929128 -11.985917 0.980306 13.524032 3.073750 -4.603653 -161.825006 77.904026 19.983781 4.098578 -60.462772 -19.920659 -35.704468 12.237542 -1.199183 7.093065 1.950498 -9.132993 
-118.458847 0.000000 70.146730 0.000000 -23.433605 0.000000 -1.881090 90.388812 0.457942 88.533503 2.481927 179.934295 152.831587 -11.087158 172.959679 -72.184306 1.724295 0.518471 75.063026 -2.932375 -8.430987 21.454553 0.003092 0.000001 166.479799 -3.684322 -174.699544 -22.841914 -2.071835 10.266518 85.537643 -6.315140 3.761906 21.454557 -0.003108 -0.000019 6.797855 1.095527 -0.385114 3.576448 2.202206 -0.736778 3.258114 2.197861 -0.750071 3.907150 10.486957 -2.776267 -20.460598 -7.334898 2.004796 -140.803121 -85.371800 -41.098899 -2.380320 68.676183 48.367322 -26.557679 -11.778316 0.961111 13.697455 3.427686 -4.506914 -162.862590 78.211700 18.923033 3.304400 -61.062532 -19.575268 -36.249775 12.463844 -1.226618 7.039343 2.383870 -9.181410 
-117.450698 0.000000 70.671879 0.000000 -23.102360 0.000000 -1.979643 90.505493 0.377488 88.261560 2.142289 179.953992 151.216371 -10.846204 172.455515 -71.006181 1.827019 -0.658437 75.184037 -2.047409 -8.324107 21.454555 0.003093 0.000000 167.170000 -3.383407 -174.404782 -22.406051 -2.253001 10.233573 86.016505 -6.243638 4.031852 21.454557 -0.003117 -0.000020 6.738495 1.010222 -0.296282 3.459726 2.028657 -0.562746 3.141408 2.025373 -0.574994 3.710898 10.075239 -2.732261 -20.139965 -7.167849 1.902143 -140.569737 -85.260445 -41.338676 -0.402310 68.489412 50.242463 -26.391754 -11.772190 0.957573 13.845744 3.807915 -4.358903 -163.635894 78.512479 18.132586 2.623562 -61.631889 -19.314594 -36.988663 12.671348 -1.257851 6.919539 2.783772 -9.308144 
-116.412947 0.000000 71.177274 0.000000 -22.801338 0.000000 -2.099451 90.549908 0.309654 87.988017 1.932187 -179.996132 149.797325 -10.663363 172.036418 -69.266089 1.899294 -1.633650 75.351655 -1.351923 -8.384633 21.454555 0.003093 -0.000000 167.751142 -3.186214 -174.023577 -22.174973 -2.435294 10.171585 86.580032 -6.151277 4.323630 21.454558 -0.003124 -0.000020 6.684969 0.948494 -0.203115 3.354427 1.902327 -0.379123 3.036124 1.900151 -0.390607 3.422272 9.588807 -2.741890 -19.774206 -6.973175 1.723821 -140.241743 -85.144922 -41.673959 1.500452 68.195660 52.035101 -26.440252 -11.944128 0.969385 13.952165 4.224249 -4.117436 -164.169627 78.771675 17.587118 2.046744 -62.081194 -19.193769 -37.939797 12.850502 -1.292846 6.705993 3.084576 -9.525655 
